<?xml version="1.0" encoding="utf-8"?>
<!-- Generator: Adobe Illustrator 25.2.1, SVG Export Plug-In . SVG Version: 6.00 Build 0)  -->
<svg version="1.1" id="Capa_1" xmlns="http://www.w3.org/2000/svg" xmlns:xlink="http://www.w3.org/1999/xlink" x="0px" y="0px"
	 viewBox="0 0 240 40" style="enable-background:new 0 0 240 40;" xml:space="preserve">
<style type="text/css">
	.st0{fill:#C783B7;}
</style>
<g>
	<path class="st0" d="M45.72,29.19c-3.36,9.39-14.6,9.35-13.16,1.6c0.7-3.85,1.27-7.38,1.89-10.62c0.82-4.47-3.28-1.84-5.12,1.6
		l-2.83,14.43h-5.66l5.12-25.46c-1.72,0.16-3.65-0.12-5.7-0.57L14.8,36.21H9.23l5.66-26.98c-4.14-0.49-7.26-0.21-8.49,1.8
		c-0.86,1.35-0.29,4.59,0.86,7.46l-5.58,2.54C1.07,14.39,2.3,10.17,4.63,7.96c3.4-3.24,9.14-2.79,14.51-1.6
		c5.45,1.23,10.74,2.17,13.41-0.9l-2.54,13c4.35-4.67,11.15-4.35,9.47,4.67c-0.53,2.83-1.02,6.03-1.48,8.77
		c-0.98,4.88,4.8,1.23,6.11-2.71H45.72z"/>
	<path class="st0" d="M59.57,29.15c-3.2,5.9-6.56,7.42-11.23,7.3c-7.75-0.25-7.87-10.04-4.06-16.11c3.12-4.84,8.45-5.86,10.78-3.9
		c2.09,1.68,2.13,4.8,0.9,7.22c-1.84,3.4-5.29,4.67-8.81,4.55c0.04,1.97,0.78,4.26,2.54,5.12c3.16,1.48,6.48-0.98,8.41-4.18H59.57z
		 M47.27,26.28c6.48,0.21,7.22-7.59,6.19-8.41c-0.82-0.62-2.62,0.16-4.1,2.5c-0.86,1.31-1.6,3.16-2.05,5.45
		C47.31,26,47.27,26.16,47.27,26.28z"/>
	<path class="st0" d="M88.31,26.28l4.22-20.91h3.98l-6.19,30.83H84.5l-4.3-21.03l-4.18,21.03h-3.98L77.53,8.9
		C77.28,8.94,77,8.98,76.71,9.02c-1.68,0.33-3.32,0.78-4.35,1.64c-1.52,1.27-0.86,4.67,1.23,7.75l-5.54,2.58
		c-1.39-5.82-0.45-9.92,1.89-12.22c1.64-1.52,3.9-2.38,6.52-2.91c2.58-0.49,4.26-0.49,7.3-0.49L88.31,26.28z"/>
	<path class="st0" d="M109.67,28.95c-3.24,8.86-15.62,11.23-13.33-0.25l2.71-13h5.66c-1.31,6.93-2.25,11.15-3.2,15.99
		c-0.94,4.92,5.17,1.27,6.56-2.75H109.67z M100.37,12.51c-0.57-0.61-0.86-1.35-0.86-2.3c0.04-0.9,0.33-1.64,0.94-2.3
		c0.66-0.62,1.39-0.94,2.34-0.94s1.64,0.33,2.25,0.94c0.66,0.66,0.98,1.39,0.98,2.3c0,0.94-0.37,1.68-1.03,2.3
		c-0.66,0.62-1.43,0.9-2.34,0.9S100.98,13.12,100.37,12.51z"/>
	<path class="st0" d="M132.51,28.99c-2.83,7.75-12.67,10.46-13.2,3.2c-4.39,6.56-13.69,5.41-12.96-3.2
		c1.07-12.42,11.44-15.33,14.97-12.42c0.16,0.16,0.33,0.37,0.53,0.62l1.97-9.68h5.58c-1.48,7.5-3.81,19.43-4.8,24.23
		c-0.94,4.8,4.96,1.23,6.31-2.75H132.51z M121.4,19.27c-2.5-4.51-7.38-0.12-8.73,6.56c-1.64,7.46,1.11,11.36,6.81,3.65
		c0-0.21,0.04-0.49,0.08-0.7L121.4,19.27z"/>
	<path class="st0" d="M146.7,29.15c-3.2,5.9-6.56,7.42-11.23,7.3c-7.75-0.25-7.87-10.04-4.06-16.11c3.12-4.84,8.45-5.86,10.78-3.9
		c2.09,1.68,2.13,4.8,0.9,7.22c-1.84,3.4-5.29,4.67-8.81,4.55c0.04,1.97,0.78,4.26,2.54,5.12c3.16,1.48,6.48-0.98,8.41-4.18H146.7z
		 M134.4,26.28c6.48,0.21,7.22-7.59,6.19-8.41c-0.82-0.62-2.62,0.16-4.1,2.5c-0.86,1.31-1.6,3.16-2.05,5.45
		C134.44,26,134.4,26.16,134.4,26.28z"/>
	<path class="st0" d="M158.26,20.99c0.62-1.23,1.31-3.49-1.15-3.69c-0.9-0.16-2.13,0.12-2.87,0.7c-1.27,0.53-1.97,1.72-1.8,2.54
		c0.12,0.9,0.25,1.03,0.78,1.6c0.7,0.61,1.72,1.31,2.95,1.97c1.07,0.53,2.3,1.27,3.32,1.97c0.9,0.74,1.56,1.52,1.93,2.54
		c2.13,8.53-16.03,10.62-17.26,3.94c-0.33-1.97,0.9-4.22,3.36-5.29l3.03,2.58c-2.54,0.78-3.69,2.13-3.16,3.24
		c0.53,1.35,3.28,1.76,5.58,0.9c1.31-0.57,2.38-1.39,2.91-2.62c0.62-1.39-0.86-2.58-2.01-3.44c-1.43-0.82-2.25-1.15-3.28-1.93
		c-1.07-0.62-2.3-1.72-2.87-2.71c-1.72-2.34-1.07-5.37,2.5-6.81c1.93-0.86,4.06-1.11,6.19-0.9c3.08,0.16,5.41,1.35,6.4,3.48
		c0.41,0.98,0.41,2.3,0.08,3.57L158.26,20.99z"/>
	<path class="st0" d="M193.56,18.66c5.37,3.4,2.34,13.08,1.23,17.55h-5.45c0.74-3.48,4.22-14.6-0.21-15.7
		c-0.7-0.08-1.48-0.04-2.46,0.16l-3.03,15.54h-5.74l5.74-27.84c-4.14,1.8-7.58,5.37-4.92,10.09l-5.54,2.58
		c-0.7-5.25,1.39-9.06,4.67-11.77c6.31-5.13,16.77-5.37,19.39,0.41C198.73,13.12,196.55,16.77,193.56,18.66z M187.21,18.21
		c3.44-0.33,5.99-2.42,5.99-6.4c-0.08-2.62-1.72-3.98-3.89-4.35L187.21,18.21z"/>
	<path class="st0" d="M201.1,30.79c0.66-0.61,1.43-0.94,2.34-0.94s1.68,0.33,2.38,0.94c0.62,0.7,0.94,1.48,0.94,2.38
		c0,0.9-0.33,1.68-0.94,2.34c-0.7,0.61-1.48,0.94-2.38,0.94s-1.68-0.33-2.34-0.94c-0.62-0.66-0.94-1.44-0.94-2.34
		C200.16,32.27,200.49,31.49,201.1,30.79z"/>
	<path class="st0" d="M238.5,5.37c-1.97,10.21-4.18,20.5-6.15,30.83h-5.74l1.84-8.41h-9.39l-7.05,8.36h-3.94
		c7.67-9.02,15.7-18.45,23.45-27.59c-2.99,0.16-8.86,0.08-12.14,2.09c-2.09,1.31-3.08,4.55-1.8,7.83l-5.54,2.54
		c0.33-5.74,2.05-9.55,4.92-11.81C222.14,5.09,230.58,5.37,238.5,5.37z M231.77,12.83l-9.72,11.48h7.18
		C230.05,20.46,230.91,16.65,231.77,12.83z"/>
</g>
</svg>
