<svg id="Capa_1" data-name="Capa 1" xmlns="http://www.w3.org/2000/svg" viewBox="0 0 236.97 31.15">
    <defs>
        <style>.cls-1{fill:#fed136;}</style>
    </defs>
    <path class="cls-1"
          d="M45.72,29.19c-3.37,9.39-14.6,9.35-13.17,1.6.7-3.85,1.28-7.38,1.89-10.62.82-4.46-3.28-1.84-5.12,1.6L26.49,36.21H20.83L26,10.74a18.79,18.79,0,0,1-5.7-.57l-5.45,26H9.23l5.65-27C10.74,8.73,7.63,9,6.4,11c-.86,1.35-.29,4.59.86,7.46L1.68,21c-.61-6.65.62-10.87,3-13.08C8,4.72,13.78,5.17,19.15,6.36s10.74,2.17,13.4-.91L30,18.45c4.35-4.67,11.15-4.34,9.47,4.68-.53,2.83-1,6-1.47,8.77-1,4.88,4.79,1.23,6.11-2.71Z"
          transform="translate(-1.52 -5.37)"/>
    <path class="cls-1"
          d="M59.57,29.15c-3.2,5.91-6.56,7.42-11.23,7.3-7.75-.24-7.87-10-4.06-16.11,3.12-4.84,8.45-5.86,10.78-3.9,2.09,1.68,2.13,4.8.9,7.22-1.84,3.4-5.28,4.67-8.81,4.55,0,2,.78,4.26,2.54,5.12,3.16,1.48,6.48-1,8.41-4.18Zm-12.3-2.87c6.48.21,7.22-7.58,6.19-8.4-.82-.62-2.62.16-4.1,2.5a15.69,15.69,0,0,0-2,5.45C47.31,26,47.27,26.16,47.27,26.28Z"
          transform="translate(-1.52 -5.37)"/>
    <path class="cls-1"
          d="M88.31,26.28,92.54,5.37h4L90.32,36.21H84.5l-4.3-21L76,36.21H72L77.53,8.9,76.71,9a10,10,0,0,0-4.35,1.64c-1.51,1.27-.86,4.68,1.24,7.75L68.06,21c-1.39-5.82-.45-9.92,1.89-12.21a13.3,13.3,0,0,1,6.52-2.92,34.32,34.32,0,0,1,7.29-.49Z"
          transform="translate(-1.52 -5.37)"/>
    <path class="cls-1"
          d="M109.67,29c-3.23,8.85-15.62,11.23-13.32-.25l2.71-13h5.65c-1.31,6.92-2.25,11.15-3.19,16S106.68,33,108.08,29Zm-9.3-16.44a3.19,3.19,0,0,1-.86-2.3,3.35,3.35,0,0,1,.94-2.29,3.24,3.24,0,0,1,2.34-1,3,3,0,0,1,2.25,1,3.07,3.07,0,0,1,1,2.29,3,3,0,0,1-1,2.3,3.3,3.3,0,0,1-2.34.9A3.12,3.12,0,0,1,100.37,12.51Z"
          transform="translate(-1.52 -5.37)"/>
    <path class="cls-1"
          d="M132.51,29c-2.83,7.75-12.67,10.45-13.2,3.2-4.39,6.56-13.7,5.41-13-3.2,1.07-12.42,11.44-15.34,15-12.42.16.16.33.37.53.61l2-9.68h5.58c-1.48,7.51-3.82,19.44-4.8,24.24s5,1.23,6.31-2.75ZM121.4,19.27c-2.5-4.51-7.38-.12-8.73,6.56-1.64,7.46,1.1,11.36,6.8,3.65a3.44,3.44,0,0,1,.09-.7Z"
          transform="translate(-1.52 -5.37)"/>
    <path class="cls-1"
          d="M146.7,29.15c-3.2,5.91-6.56,7.42-11.24,7.3-7.75-.24-7.87-10-4.06-16.11,3.12-4.84,8.45-5.86,10.79-3.9,2.09,1.68,2.13,4.8.9,7.22-1.85,3.4-5.29,4.67-8.82,4.55,0,2,.78,4.26,2.55,5.12,3.15,1.48,6.47-1,8.4-4.18Zm-12.3-2.87c6.48.21,7.21-7.58,6.19-8.4-.82-.62-2.63.16-4.1,2.5a15.49,15.49,0,0,0-2.05,5.45C134.44,26,134.4,26.16,134.4,26.28Z"
          transform="translate(-1.52 -5.37)"/>
    <path class="cls-1"
          d="M158.26,21c.61-1.23,1.31-3.48-1.15-3.69a4,4,0,0,0-2.87.7,2.62,2.62,0,0,0-1.8,2.54,2.12,2.12,0,0,0,.77,1.6,16.08,16.08,0,0,0,3,2,30.78,30.78,0,0,1,3.32,2,5.84,5.84,0,0,1,1.93,2.54c2.13,8.53-16,10.62-17.27,3.94a5.13,5.13,0,0,1,3.37-5.29l3,2.58c-2.54.78-3.69,2.13-3.16,3.24.54,1.35,3.28,1.76,5.58.9a5.23,5.23,0,0,0,2.91-2.62c.62-1.4-.86-2.59-2-3.45A28.62,28.62,0,0,1,150.59,26a8.79,8.79,0,0,1-2.87-2.71c-1.72-2.34-1.06-5.37,2.5-6.81a12.3,12.3,0,0,1,6.19-.9c3.08.17,5.42,1.36,6.4,3.49a5.79,5.79,0,0,1,.08,3.56Z"
          transform="translate(-1.52 -5.37)"/>
    <path class="cls-1"
          d="M193.56,18.66c5.37,3.4,2.34,13.08,1.23,17.55h-5.45c.74-3.49,4.22-14.6-.21-15.71a7.51,7.51,0,0,0-2.46.17l-3,15.54H177.9l5.74-27.84c-4.14,1.8-7.59,5.37-4.92,10.08L173.18,21a12.39,12.39,0,0,1,4.68-11.77c6.31-5.13,16.77-5.37,19.39.41C198.73,13.12,196.55,16.77,193.56,18.66Zm-6.35-.45c3.44-.33,6-2.42,6-6.4a4.28,4.28,0,0,0-3.89-4.35Z"
          transform="translate(-1.52 -5.37)"/>
    <path class="cls-1"
          d="M201.1,30.79a3.36,3.36,0,0,1,2.34-.94,3.22,3.22,0,0,1,3.32,3.32,3.36,3.36,0,0,1-.94,2.34,3.53,3.53,0,0,1-2.38.94,3.21,3.21,0,0,1-3.28-3.28A3.53,3.53,0,0,1,201.1,30.79Z"
          transform="translate(-1.52 -5.37)"/>
    <path class="cls-1"
          d="M238.5,5.37c-2,10.21-4.19,20.5-6.16,30.84h-5.73l1.84-8.41h-9.39L212,36.16h-3.94c7.67-9,15.71-18.45,23.46-27.59-3,.16-8.86.08-12.14,2.09-2.09,1.31-3.08,4.55-1.81,7.83L212.05,21c.33-5.75,2-9.56,4.92-11.81C222.14,5.09,230.58,5.37,238.5,5.37Zm-6.73,7.46-9.72,11.49h7.18C230.05,20.46,230.91,16.65,231.77,12.83Z"
          transform="translate(-1.52 -5.37)"/>
</svg>
